<svg width="400" height="300" viewBox="0 0 400 300" xmlns="http://www.w3.org/2000/svg">
  <defs>
    <linearGradient id="otkpGradient" x1="0%" y1="0%" x2="100%" y2="100%">
      <stop offset="0%" style="stop-color:#7c3aed;stop-opacity:1" />
      <stop offset="100%" style="stop-color:#6d28d9;stop-opacity:1" />
    </linearGradient>
  </defs>
  
  <!-- Background -->
  <rect width="400" height="300" fill="url(#otkpGradient)"/>
  
  <!-- Office Building -->
  <g transform="translate(150, 70)">
    <!-- Main Building -->
    <rect x="0" y="20" width="100" height="80" fill="#ffffff" fill-opacity="0.9"/>
    <rect x="5" y="25" width="90" height="70" fill="#7c3aed"/>
    
    <!-- Windows Grid -->
    <rect x="15" y="35" width="12" height="10" fill="#ffffff" fill-opacity="0.8"/>
    <rect x="35" y="35" width="12" height="10" fill="#ffffff" fill-opacity="0.8"/>
    <rect x="55" y="35" width="12" height="10" fill="#ffffff" fill-opacity="0.8"/>
    <rect x="75" y="35" width="12" height="10" fill="#ffffff" fill-opacity="0.8"/>
    
    <rect x="15" y="55" width="12" height="10" fill="#ffffff" fill-opacity="0.8"/>
    <rect x="35" y="55" width="12" height="10" fill="#ffffff" fill-opacity="0.8"/>
    <rect x="55" y="55" width="12" height="10" fill="#ffffff" fill-opacity="0.8"/>
    <rect x="75" y="55" width="12" height="10" fill="#ffffff" fill-opacity="0.8"/>
    
    <rect x="15" y="75" width="12" height="10" fill="#ffffff" fill-opacity="0.8"/>
    <rect x="35" y="75" width="12" height="10" fill="#ffffff" fill-opacity="0.8"/>
    <rect x="55" y="75" width="12" height="10" fill="#ffffff" fill-opacity="0.8"/>
    <rect x="75" y="75" width="12" height="10" fill="#ffffff" fill-opacity="0.8"/>
    
    <!-- Entrance -->
    <rect x="40" y="85" width="20" height="15" fill="#ffffff" fill-opacity="0.9"/>
  </g>
  
  <!-- Document Icon -->
  <g transform="translate(100, 140)">
    <rect x="0" y="0" width="25" height="35" rx="3" fill="#ffffff" fill-opacity="0.3"/>
    <rect x="3" y="5" width="19" height="2" fill="#7c3aed"/>
    <rect x="3" y="10" width="15" height="2" fill="#7c3aed"/>
    <rect x="3" y="15" width="17" height="2" fill="#7c3aed"/>
    <rect x="3" y="20" width="12" height="2" fill="#7c3aed"/>
  </g>
  
  <!-- Calculator Icon -->
  <g transform="translate(280, 130)">
    <rect x="0" y="0" width="30" height="40" rx="4" fill="#ffffff" fill-opacity="0.3"/>
    <rect x="3" y="3" width="24" height="8" fill="#7c3aed"/>
    <!-- Calculator buttons -->
    <circle cx="8" cy="18" r="2" fill="#ffffff" fill-opacity="0.8"/>
    <circle cx="15" cy="18" r="2" fill="#ffffff" fill-opacity="0.8"/>
    <circle cx="22" cy="18" r="2" fill="#ffffff" fill-opacity="0.8"/>
    <circle cx="8" cy="25" r="2" fill="#ffffff" fill-opacity="0.8"/>
    <circle cx="15" cy="25" r="2" fill="#ffffff" fill-opacity="0.8"/>
    <circle cx="22" cy="25" r="2" fill="#ffffff" fill-opacity="0.8"/>
    <circle cx="8" cy="32" r="2" fill="#ffffff" fill-opacity="0.8"/>
    <circle cx="15" cy="32" r="2" fill="#ffffff" fill-opacity="0.8"/>
    <circle cx="22" cy="32" r="2" fill="#ffffff" fill-opacity="0.8"/>
  </g>
  
  <!-- Floating Elements -->
  <circle cx="80" cy="60" r="6" fill="#ffffff" fill-opacity="0.25"/>
  <circle cx="330" cy="80" r="10" fill="#ffffff" fill-opacity="0.2"/>
  <circle cx="350" cy="220" r="8" fill="#ffffff" fill-opacity="0.3"/>
  <circle cx="50" cy="230" r="12" fill="#ffffff" fill-opacity="0.15"/>
  
  <!-- Program Title -->
  <text x="200" y="200" text-anchor="middle" fill="#ffffff" font-family="Inter, sans-serif" font-size="22" font-weight="600">OTKP</text>
  <text x="200" y="220" text-anchor="middle" fill="#ffffff" font-family="Inter, sans-serif" font-size="12" font-weight="400" opacity="0.9">Otomatisasi dan Tata Kelola</text>
  <text x="200" y="235" text-anchor="middle" fill="#ffffff" font-family="Inter, sans-serif" font-size="12" font-weight="400" opacity="0.9">Perkantoran</text>
  
  <!-- Decorative Elements -->
  <text x="120" y="270" fill="#ffffff" font-family="sans-serif" font-size="18" font-weight="300" opacity="0.3">📊</text>
  <text x="260" y="270" fill="#ffffff" font-family="sans-serif" font-size="18" font-weight="300" opacity="0.3">💼</text>
</svg>